{"title":"[MARATHI] Gammat Jammat 1987 (RRG)","uid":8254935,"size":610174976,"categoryP":"video","categoryS":"movies","magnet":"?xt=urn:btih:e9a3eeb5c6ffc5a6e1685b1ee380c6a0548357c0&amp;dn=%5BMARATHI%5D+Gammat+Jammat+1987+%28RRG%29&amp;tr=udp%3A%2F%2Ftracker.openbittorrent.com%3A80&amp;tr=udp%3A%2F%2Fopen.demonii.com%3A1337&amp;tr=udp%3A%2F%2Ftracker.coppersurfer.tk%3A6969&amp;tr=udp%3A%2F%2Fexodus.desync.com%3A6969","seeders":1,"leechers":0,"uploader":"SJonam","files":1,"time":1363245061,"description":" &lt;a href=&quot;http://desibbrg.org/images/66952052392581364616.gif&quot; rel=&quot;nofollow&quot; target=&quot;_NEW&quot;&gt;http://desibbrg.org/images/66952052392581364616.gif&lt;/a&gt; &lt;a href=&quot;\nhttp://desibbrg.org/images/20367041636440365769.jpg&quot; rel=&quot;nofollow&quot; target=&quot;_NEW&quot;&gt;\nhttp://desibbrg.org/images/20367041636440365769.jpg&lt;/a&gt; &lt;a href=&quot;\nhttp://desibbrg.org/images/10157093226170058515.jpg&quot; rel=&quot;nofollow&quot; target=&quot;_NEW&quot;&gt;\nhttp://desibbrg.org/images/10157093226170058515.jpg&lt;/a&gt; &lt;a href=&quot;\nhttp://desibbrg.org/images/51465476045021596558.jpg&quot; rel=&quot;nofollow&quot; target=&quot;_NEW&quot;&gt;\nhttp://desibbrg.org/images/51465476045021596558.jpg&lt;/a&gt; &lt;a href=&quot;\nhttp://desibbrg.org/images/40881337822160199703.jpg&quot; rel=&quot;nofollow&quot; target=&quot;_NEW&quot;&gt;\nhttp://desibbrg.org/images/40881337822160199703.jpg&lt;/a&gt;\n\nInfo - \n    Sachin - Gautam\n    Ashok Saraf - Phalgun\n    Varsha Usgaonkar - Kalpana\n    Charusheela Sabale - Ashwini\n    Chetan Dalvi - Shrikant\n    Sudhir Joshi - Shrikant Uncle Guest appearance\n    Satish Shah - Inspector\n    Jairam Kulkarni - Bar Owner\n    Shrikant Moghe - Kalpana Father\n    Viju Khote - Ganu Pehelwan\n    Bipin Varti - Gotya\n    Suhas Bhalekar - Mr Sonya\n    Manorma Wagle - Mrs Sonya\n\nMedia Info - \nVideo\nFormat : MPEG-4 Visual\nFormat profile : Advanced Simple@L1\nFormat settings, BVOP : 2\nFormat settings, QPel : No\nFormat settings, GMC : No warppoints\nFormat settings, Matrix : Default (H.263)\nCodec ID : divx\nCodec ID/Info : Mainly used by Google\nCodec ID/Hint : DivX\nDuration : 2h 25mn\nBit rate : 487 Kbps\nWidth : 320 pixels\nHeight : 240 pixels\nDisplay aspect ratio : 4:3\nFrame rate : 25.000 fps\nColor space : YUV\nChroma subsampling : 4:2:0\nBit depth : 8 bits\nScan type : Progressive\nCompression mode : Lossy\nBits/(Pixel*Frame) : 0.253\nStream size : 505 MiB (87%)\nWriting library : Lavc50.0.0\n\nAudio\nFormat : MPEG Audio\nFormat version : Version 2\nFormat profile : Layer 3\nCodec ID : 55\nCodec ID/Hint : MP3\nDuration : 2h 25mn\nBit rate mode : Constant\nBit rate : 64.0 Kbps\nChannel(s) : 1 channel\nSampling rate : 22.05 KHz\nCompression mode : Lossy\nStream size : 66.5 MiB (11%)\nAlignment : Split accross interleaves\nInterleave, duration : 40 ms (1.00 video frame)\nInterleave, preload duration : 500 ms\nWriting library : LAME3.96.1\n\nRipper : Seeding 24x7... Extreme Seeding...\n\n\nEnjoy!\n","torrent":{"xt":"urn:btih:e9a3eeb5c6ffc5a6e1685b1ee380c6a0548357c0","amp;dn":"%5BMARATHI%5D+Gammat+Jammat+1987+%28RRG%29","amp;tr":["udp%3A%2F%2Ftracker.openbittorrent.com%3A80","udp%3A%2F%2Fopen.demonii.com%3A1337","udp%3A%2F%2Ftracker.coppersurfer.tk%3A6969","udp%3A%2F%2Fexodus.desync.com%3A6969"],"infoHash":"e9a3eeb5c6ffc5a6e1685b1ee380c6a0548357c0","infoHashBuffer":{"type":"Buffer","data":[233,163,238,181,198,255,197,166,225,104,91,30,227,128,198,160,84,131,87,192]},"announce":[],"urlList":[]}}